<svg xmlns="http://www.w3.org/2000/svg" xmlns:xlink="http://www.w3.org/1999/xlink" width="500" zoomAndPan="magnify" viewBox="0 0 375 374.999991" height="500" preserveAspectRatio="xMidYMid meet" version="1.0"><path fill="#a3ed3b" d="M 311.058594 113.234375 L 249.609375 143.359375 C 258.480469 155.8125 263.710938 171.042969 263.710938 187.5 C 263.710938 205.125 257.707031 221.339844 247.664062 234.253906 L 243.148438 321.65625 L 298.300781 338.738281 C 344.792969 304.621094 374.976562 249.585938 374.976562 187.5 C 374.976562 120.34375 339.664062 61.449219 286.597656 28.335938 L 311.042969 113.242188 Z M 311.058594 113.234375 " fill-opacity="1" fill-rule="nonzero"/><path fill="#38dde1" d="M 221.046875 337.085938 L 225.351562 253.636719 C 214.199219 260.035156 201.277344 263.71875 187.492188 263.71875 C 150.855469 263.71875 120.265625 237.859375 112.941406 203.410156 L 83.839844 179.085938 L 9.050781 245.164062 C 33.375 320.5 104.070312 374.992188 187.5 374.992188 C 218.894531 374.992188 248.46875 367.269531 274.464844 353.636719 L 221.054688 337.09375 Z M 221.046875 337.085938 " fill-opacity="1" fill-rule="nonzero"/><path fill="#3c79ff" d="M 83.457031 151.027344 L 112.289062 175.121094 C 118.203125 138.914062 149.617188 111.277344 187.492188 111.277344 C 205.070312 111.277344 221.242188 117.238281 234.132812 127.238281 L 285.660156 101.984375 L 260.554688 14.777344 C 238.109375 5.257812 213.417969 0 187.5 0 C 83.945312 0 0 83.945312 0 187.5 C 0 199.269531 1.097656 210.789062 3.171875 221.949219 Z M 83.457031 151.027344 " fill-opacity="1" fill-rule="nonzero"/></svg>