<?xml version="1.0" encoding="utf-8"?>
<svg x="0pt" y="0pt" width="500pt" height="500pt" viewBox="0 0 500 500" xmlns="http://www.w3.org/2000/svg" xmlns:xlink="http://www.w3.org/1999/xlink">
  <!--Generated by AMDN-->
  <g id="Layer 1">
    <clipPath id="am1">
      <path id="am2" d="M248.196,12.4695 C243.867,12.6876,239.626,13.7609,235.721,15.6264 C235.721,15.6264,65.4846,96.9669,65.4846,96.9669 C56.5592,101.229,50.0763,109.291,47.871,118.87 C47.871,118.87,5.87269,301.581,5.87269,301.581 C3.91337,310.086,5.50762,319.015,10.2924,326.336 C10.8667,327.221,11.4843,328.079,12.1431,328.905 C12.1431,328.905,129.974,475.409,129.974,475.409 C136.152,483.088,145.52,487.56,155.425,487.558 C218.412,487.543,281.398,487.529,344.385,487.514 C354.287,487.522,363.654,483.058,369.837,475.387 C369.837,475.387,487.623,328.861,487.623,328.861 C493.805,321.178,496.121,311.12,493.915,301.537 C493.915,301.537,451.852,118.826,451.852,118.826 C449.647,109.247,443.164,101.186,434.238,96.9234 C434.238,96.9234,263.981,15.6265,263.981,15.6265 C259.069,13.2797,253.641,12.1942,248.196,12.4695 C248.196,12.4695,248.196,12.4695,248.196,12.4695 z"/>
      <path d="M248.196,12.4695 C243.867,12.6876,239.626,13.7609,235.721,15.6264 C235.721,15.6264,65.4846,96.9669,65.4846,96.9669 C56.5592,101.229,50.0763,109.291,47.871,118.87 C47.871,118.87,5.87269,301.581,5.87269,301.581 C3.91337,310.086,5.50762,319.015,10.2924,326.336 C10.8667,327.221,11.4843,328.079,12.1431,328.905 C12.1431,328.905,129.974,475.409,129.974,475.409 C136.152,483.088,145.52,487.56,155.425,487.558 C218.412,487.543,281.398,487.529,344.385,487.514 C354.287,487.522,363.654,483.058,369.837,475.387 C369.837,475.387,487.623,328.861,487.623,328.861 C493.805,321.178,496.121,311.12,493.915,301.537 C493.915,301.537,451.852,118.826,451.852,118.826 C449.647,109.247,443.164,101.186,434.238,96.9234 C434.238,96.9234,263.981,15.6265,263.981,15.6265 C259.069,13.2797,253.641,12.1942,248.196,12.4695 C248.196,12.4695,248.196,12.4695,248.196,12.4695 z"/>
    </clipPath>
    <g id="Clipping Group" style="clip-path:url(#am1);">
      <path id="Path 0" style="fill:#a3ed3b;fill-opacity:1;fill-rule:nonzero;opacity:1;stroke:none;" d="M414.776,161.979 C414.776,161.979,332.844,202.146,332.844,202.146 C344.672,218.75,351.646,239.057,351.646,261 C351.646,284.5,343.641,306.12,330.25,323.339 C330.25,323.339,324.229,439.875,324.229,439.875 C324.229,439.875,397.766,462.651,397.766,462.651 C459.755,417.161,500,343.781,500,261 C500,171.458,452.917,92.9323,382.161,48.7813 C382.161,48.7813,414.755,161.99,414.755,161.99 C414.755,161.99,414.776,161.979,414.776,161.979 z M414.776,161.979"/>
      <path id="Path 1" style="fill:#38dde1;fill-opacity:1;fill-rule:nonzero;opacity:1;stroke:none;" d="M294.76,460.448 C294.76,460.448,300.5,349.182,300.5,349.182 C285.63,357.714,268.401,362.625,250.021,362.625 C201.172,362.625,160.385,328.146,150.62,282.214 C150.62,282.214,111.818,249.781,111.818,249.781 C111.818,249.781,12.099,337.885,12.099,337.885 C44.5313,438.333,138.792,510.99,250.031,510.99 C291.891,510.99,331.323,500.693,365.984,482.516 C365.984,482.516,294.771,460.458,294.771,460.458 C294.771,460.458,294.76,460.448,294.76,460.448 z M294.76,460.448"/>
      <path id="Path 2" style="fill:#3b79ff;fill-opacity:1;fill-rule:nonzero;opacity:1;stroke:none;" d="M111.307,212.37 C111.307,212.37,149.75,244.495,149.75,244.495 C157.635,196.219,199.521,159.37,250.021,159.37 C273.458,159.37,295.021,167.318,312.208,180.651 C312.208,180.651,380.911,146.979,380.911,146.979 C380.911,146.979,347.438,30.7031,347.438,30.7031 C317.51,18.0104,284.589,11,250.031,11 C111.958,11,0.0312653,122.927,0.0312653,261 C0.0312653,276.693,1.49481,292.052,4.26043,306.932 C4.26043,306.932,111.307,212.37,111.307,212.37 z M111.307,212.37"/>
    </g>
    <clipPath id="am4">
      <path id="am5" d="M248.196,12.4695 C243.867,12.6876,239.626,13.7609,235.721,15.6264 C235.721,15.6264,65.4846,96.9669,65.4846,96.9669 C56.5592,101.229,50.0763,109.291,47.871,118.87 C47.871,118.87,5.87269,301.581,5.87269,301.581 C3.91337,310.086,5.50762,319.015,10.2924,326.336 C10.8667,327.221,11.4843,328.079,12.1431,328.905 C12.1431,328.905,129.974,475.409,129.974,475.409 C136.152,483.088,145.52,487.56,155.425,487.558 C218.412,487.543,281.398,487.529,344.385,487.514 C354.287,487.522,363.654,483.058,369.837,475.387 C369.837,475.387,487.623,328.861,487.623,328.861 C493.805,321.178,496.121,311.12,493.915,301.537 C493.915,301.537,451.852,118.826,451.852,118.826 C449.647,109.247,443.164,101.186,434.238,96.9234 C434.238,96.9234,263.981,15.6265,263.981,15.6265 C259.069,13.2797,253.641,12.1942,248.196,12.4695 C248.196,12.4695,248.196,12.4695,248.196,12.4695 z"/>
      <path d="M248.196,12.4695 C243.867,12.6876,239.626,13.7609,235.721,15.6264 C235.721,15.6264,65.4846,96.9669,65.4846,96.9669 C56.5592,101.229,50.0763,109.291,47.871,118.87 C47.871,118.87,5.87269,301.581,5.87269,301.581 C3.91337,310.086,5.50762,319.015,10.2924,326.336 C10.8667,327.221,11.4843,328.079,12.1431,328.905 C12.1431,328.905,129.974,475.409,129.974,475.409 C136.152,483.088,145.52,487.56,155.425,487.558 C218.412,487.543,281.398,487.529,344.385,487.514 C354.287,487.522,363.654,483.058,369.837,475.387 C369.837,475.387,487.623,328.861,487.623,328.861 C493.805,321.178,496.121,311.12,493.915,301.537 C493.915,301.537,451.852,118.826,451.852,118.826 C449.647,109.247,443.164,101.186,434.238,96.9234 C434.238,96.9234,263.981,15.6265,263.981,15.6265 C259.069,13.2797,253.641,12.1942,248.196,12.4695 C248.196,12.4695,248.196,12.4695,248.196,12.4695 z"/>
    </clipPath>
    <g id="am6" style="clip-path:url(#am4);"/>
  </g>
</svg>
